<?xml version="1.0" standalone="no"?>
<!DOCTYPE svg PUBLIC "-//W3C//DTD SVG 20010904//EN"
 "http://www.w3.org/TR/2001/REC-SVG-20010904/DTD/svg10.dtd">
<svg version="1.0" xmlns="http://www.w3.org/2000/svg"
 width="244.000000pt" height="150.000000pt" viewBox="0 0 244.000000 150.000000"
 preserveAspectRatio="xMidYMid meet">

<g transform="translate(0.000000,150.000000) scale(0.100000,-0.100000)"
fill="#000000" stroke="none">
<path d="M476 1024 c-142 -174 -261 -325 -263 -335 -5 -18 1 -19 85 -19 66 0
93 -4 102 -15 10 -12 -3 -61 -65 -254 -42 -132 -74 -245 -70 -251 4 -6 13 -7
21 -2 27 15 403 457 404 473 0 9 -14 22 -31 29 -32 14 -72 60 -83 96 -4 14 26
113 89 289 52 148 96 275 97 284 9 54 -48 -5 -286 -295z"/>
<path d="M734 880 c-80 -32 -86 -173 -9 -208 51 -23 122 -5 145 37 15 28 12
98 -5 130 -21 42 -83 61 -131 41z m90 -52 c36 -51 4 -138 -50 -138 -30 0 -64
45 -64 84 0 47 25 76 65 76 24 0 39 -7 49 -22z"/>
<path d="M1490 882 c0 -15 24 -32 46 -32 24 0 51 26 40 38 -4 4 -14 -2 -22
-12 -13 -18 -15 -18 -32 -3 -20 18 -32 22 -32 9z"/>
<path d="M1827 884 c-14 -14 -7 -35 11 -32 9 2 17 10 17 17 0 16 -18 25 -28
15z"/>
<path d="M910 740 c0 -73 2 -80 20 -80 17 0 20 7 20 53 0 55 12 77 41 77 22 0
29 -20 29 -81 0 -37 4 -49 15 -49 11 0 15 13 15 53 0 55 12 77 41 77 22 0 29
-20 29 -81 0 -37 4 -49 15 -49 12 0 15 14 15 68 0 40 -5 73 -12 80 -15 15 -61
15 -76 0 -9 -9 -15 -9 -24 0 -15 15 -61 15 -76 0 -9 -9 -12 -9 -12 0 0 7 -9
12 -20 12 -18 0 -20 -7 -20 -80z"/>
<path d="M1190 740 c0 -73 2 -80 20 -80 18 0 20 7 20 55 0 51 2 57 28 68 15 7
28 18 30 25 3 15 -30 16 -46 0 -9 -9 -12 -9 -12 0 0 7 -9 12 -20 12 -18 0 -20
-7 -20 -80z"/>
<path d="M1321 794 c-61 -78 36 -178 110 -114 l24 21 -46 -7 c-35 -4 -48 -2
-59 11 -20 24 1 38 54 34 42 -4 46 -2 46 18 0 61 -90 86 -129 37z m73 0 c30
-12 18 -34 -19 -34 -40 0 -41 2 -19 24 18 18 17 18 38 10z"/>
<path d="M1480 805 c0 -10 11 -15 35 -15 19 0 35 -3 35 -6 0 -4 -18 -27 -41
-51 -22 -24 -39 -49 -36 -56 2 -7 30 -13 70 -15 55 -2 67 0 67 13 0 11 -11 15
-40 15 -22 0 -40 3 -40 6 0 3 16 25 35 48 52 64 48 76 -25 76 -47 0 -60 -3
-60 -15z"/>
<path d="M1640 740 c0 -64 3 -80 15 -80 11 0 15 12 15 46 0 55 14 84 40 84 26
0 40 -29 40 -84 0 -34 4 -46 15 -46 12 0 15 14 15 68 0 76 -9 92 -55 92 -17 0
-36 -5 -43 -12 -9 -9 -12 -9 -12 0 0 7 -7 12 -15 12 -12 0 -15 -16 -15 -80z"/>
<path d="M1820 740 c0 -73 2 -80 20 -80 18 0 20 7 20 80 0 73 -2 80 -20 80
-18 0 -20 -7 -20 -80z"/>
<path d="M1900 740 c0 -64 3 -80 15 -80 11 0 15 12 15 48 0 55 18 86 46 80 15
-3 20 -14 24 -63 4 -47 9 -61 23 -63 15 -3 17 5 17 65 0 77 -9 93 -55 93 -17
0 -36 -5 -43 -12 -9 -9 -12 -9 -12 0 0 7 -7 12 -15 12 -12 0 -15 -16 -15 -80z"/>
<path d="M2095 807 c-26 -20 0 -33 32 -16 22 12 27 11 39 -5 18 -25 9 -36 -30
-36 -46 0 -71 -20 -62 -53 8 -32 46 -45 82 -28 15 6 24 7 24 1 0 -6 7 -10 15
-10 22 0 21 122 -1 144 -19 20 -74 21 -99 3z m85 -85 c0 -15 -24 -32 -47 -32
-22 0 -31 19 -16 33 9 10 63 9 63 -1z"/>
<path d="M2090 530 l0 -40 -40 0 c-33 0 -40 -3 -40 -20 0 -17 7 -20 40 -20
l40 0 0 -40 c0 -33 3 -40 20 -40 17 0 20 7 20 40 l0 40 40 0 c33 0 40 3 40 20
0 17 -7 20 -40 20 l-40 0 0 40 c0 33 -3 40 -20 40 -17 0 -20 -7 -20 -40z"/>
</g>
</svg>
